<?xml version="1.0" standalone="no"?>
<!DOCTYPE svg PUBLIC "-//W3C//DTD SVG 20010904//EN"
 "http://www.w3.org/TR/2001/REC-SVG-20010904/DTD/svg10.dtd">
<svg version="1.0" xmlns="http://www.w3.org/2000/svg"
 width="1024.000000pt" height="1024.000000pt" viewBox="0 0 1024.000000 1024.000000"
 preserveAspectRatio="xMidYMid meet">

<g transform="translate(0.000000,1024.000000) scale(0.100000,-0.100000)"
fill="#000000" stroke="none">
<path d="M4935 9615 c-189 -42 -352 -137 -490 -287 -148 -161 -225 -364 -225
-590 l0 -48 -407 0 c-259 0 -422 -4 -447 -11 -51 -14 -120 -79 -143 -135 l-18
-44 -522 0 c-341 0 -540 -4 -575 -11 -123 -26 -262 -128 -316 -235 -56 -109
-52 140 -52 -3611 0 -3807 -5 -3499 63 -3626 65 -124 202 -220 335 -236 84
-11 5804 -11 5929 -1 193 16 342 127 412 309 l26 66 0 2160 c0 1188 -2 2759
-5 3490 l-5 1330 -23 57 c-50 124 -156 227 -287 279 l-60 24 -552 3 -552 3
-10 35 c-15 54 -55 99 -113 128 l-52 26 -418 0 -418 0 0 74 c0 221 -85 414
-259 587 -146 144 -292 226 -473 263 -92 19 -258 19 -343 1z m339 -379 c163
-51 299 -192 340 -351 12 -43 16 -110 16 -249 0 -216 9 -250 77 -296 l36 -25
440 -5 439 -5 24 -28 c24 -28 24 -32 24 -217 l0 -188 -31 -26 -31 -26 -1495 0
-1495 0 -29 29 -29 29 0 186 c0 181 1 185 24 213 l24 28 434 5 c483 6 469 4
525 77 l28 36 6 216 c5 178 10 227 27 278 49 152 173 274 330 324 86 27 221
25 316 -5z m-2072 -1298 c4 -172 7 -199 27 -251 30 -76 75 -134 141 -180 103
-72 -20 -67 1745 -67 1741 0 1639 -3 1742 57 84 49 159 154 183 255 5 24 10
118 10 211 l0 167 498 0 c377 0 503 -3 522 -13 13 -7 35 -28 47 -46 l23 -34
-2 -3408 -3 -3409 -31 -31 c-20 -20 -47 -34 -75 -40 -24 -5 -1349 -7 -2944 -6
-3177 2 -2935 -3 -2974 61 -18 30 -19 142 -22 3438 l-4 3407 21 28 c40 54 31
53 581 53 l511 0 4 -192z"/>
<path d="M3375 6990 c-348 -62 -630 -354 -686 -711 -16 -101 -6 -284 21 -377
65 -229 217 -417 432 -531 97 -52 188 -79 310 -90 341 -32 650 111 837 387 24
35 52 85 64 110 24 55 97 305 97 333 0 67 -64 129 -133 129 -79 0 -126 -44
-156 -146 -52 -176 -118 -292 -215 -381 -172 -158 -414 -203 -619 -117 -170
72 -284 197 -336 369 -65 211 -17 411 139 578 144 154 332 207 575 161 141
-26 178 -28 212 -10 50 25 73 62 73 115 0 92 -50 134 -201 167 -86 19 -340 27
-414 14z"/>
<path d="M4275 6953 c-44 -23 -70 -49 -138 -138 -100 -131 -516 -625 -550
-654 -15 -12 -29 -2 -120 87 -114 111 -140 123 -217 102 -85 -23 -133 -105
-110 -190 10 -38 37 -70 183 -217 180 -183 206 -200 279 -190 73 10 51 -13
646 682 131 154 246 295 256 312 9 18 16 47 16 65 0 50 -39 118 -80 140 -43
22 -124 23 -165 1z"/>
<path d="M4930 6337 c-42 -11 -97 -69 -110 -117 -20 -74 19 -163 84 -194 31
-14 152 -16 1296 -16 1382 0 1290 -4 1343 59 66 79 38 209 -55 257 -27 14
-171 16 -1279 17 -687 1 -1262 -1 -1279 -6z"/>
<path d="M3340 5065 c-249 -54 -452 -219 -579 -474 -71 -140 -98 -350 -66
-516 52 -280 235 -517 487 -635 274 -128 647 -95 891 81 104 75 213 202 266
312 36 73 111 314 111 354 0 95 -124 157 -212 106 -38 -22 -56 -56 -94 -173
-56 -178 -140 -295 -273 -382 -92 -60 -181 -89 -296 -95 -114 -6 -200 13 -306
68 -172 89 -288 271 -305 474 -21 273 168 539 428 600 89 21 192 19 348 -6
132 -22 136 -22 174 -4 49 24 76 67 76 125 0 94 -56 134 -237 165 -106 19
-325 18 -413 0z"/>
<path d="M4275 5036 c-35 -16 -79 -62 -155 -161 -101 -132 -520 -627 -541
-641 -7 -4 -48 31 -103 89 -50 53 -104 101 -119 106 -129 49 -252 -59 -217
-190 10 -34 41 -72 173 -207 89 -90 174 -170 189 -178 35 -18 111 -18 147 0
33 18 112 103 421 461 128 149 272 314 319 368 121 139 133 160 127 224 -5 60
-33 106 -76 128 -36 18 -125 19 -165 1z"/>
<path d="M4920 4429 c-126 -50 -138 -242 -20 -308 l38 -21 1264 0 1265 0 34
23 c107 72 101 236 -10 294 l-44 23 -1251 -1 c-806 0 -1260 -4 -1276 -10z"/>
<path d="M3425 3159 c-340 -45 -609 -278 -712 -616 -24 -79 -26 -105 -27 -243
-1 -133 2 -166 22 -234 58 -203 188 -381 362 -497 297 -198 727 -178 1020 47
165 127 254 266 325 507 42 144 41 178 -3 222 -50 50 -114 59 -172 24 -49 -30
-55 -41 -96 -164 -52 -158 -86 -218 -180 -313 -67 -67 -97 -89 -165 -121 -98
-45 -164 -61 -257 -61 -249 1 -472 165 -547 403 -63 200 -29 389 100 557 143
185 341 243 650 190 136 -24 166 -19 215 36 25 29 30 43 30 89 0 93 -51 131
-213 159 -113 20 -268 26 -352 15z"/>
<path d="M4315 3131 c-66 -16 -78 -28 -260 -256 -144 -180 -431 -520 -464
-549 l-21 -20 -93 97 c-50 53 -105 101 -120 106 -125 47 -251 -62 -217 -188 9
-35 40 -73 166 -205 86 -90 173 -173 194 -185 44 -25 108 -27 150 -6 49 25
832 936 859 998 17 41 9 111 -16 146 -38 50 -115 77 -178 62z"/>
<path d="M4920 2519 c-63 -25 -100 -85 -100 -162 0 -62 25 -108 79 -144 l34
-23 1267 0 1267 0 34 23 c55 37 79 81 79 147 0 66 -24 110 -79 147 l-34 23
-1261 -1 c-813 0 -1270 -4 -1286 -10z"/>
</g>
</svg>
